#!OML:ASF F:\VICON\USERDATA\INSTALL\Justin_Nancy\Justin_Nancy.ASF
:FULLY-SPECIFIED
:DEGREES
190
root -6.41541 17.0028 14.9055 -3.22028 -38.5448 8.10594
lowerback 7.70168 -1.3422 -8.16598
upperback -1.19516 -2.46897 2.11969
thorax -5.15813 -0.944602 7.14277
lowerneck -15.8693 -3.74304 -10.3534
upperneck 23.9295 -3.81523 4.61013
head 10.6124 -2.20179 2.85296
rclavicle 2.52457e-014 -4.77083e-015
rhumerus -50.0423 -27.3413 -58.5422
rradius 22.8352
rwrist 13.1326
rhand -14.4422 8.63631
rfingers 7.12502
rthumb 11.7027 -21.0168
lclavicle 2.52457e-014 -4.77083e-015
lhumerus -22.0024 8.26612 85.0834
lradius 38.0584
lwrist -0.420759
lhand -19.1132 26.0569
lfingers 7.12502
lthumb 7.19588 55.9145
rfemur -32.2311 0.850274 16.992
rtibia 27.9287
rfoot 2.03298 -1.02787
rtoes -4.26357
lfemur 10.5655 -5.78138 -26.4111
ltibia 31.5186
lfoot 14.7834 -16.9051
ltoes -6.38957
191
root -6.59987 17.0267 15.1032 -3.11829 -38.7671 7.42283
lowerback 7.77435 -1.27372 -7.67109
upperback -1.13978 -2.32361 2.32236
thorax -5.17536 -0.88568 7.06336
lowerneck -15.7579 -3.73184 -10.3938
upperneck 23.709 -3.77655 4.54865
head 10.5071 -2.19116 2.84113
rclavicle 1.31894e-013 2.38542e-015
rhumerus -50.3355 -28.2623 -57.5996
rradius 22.6799
rwrist 13.3737
rhand -13.7525 9.95482
rfingers 7.12502
rthumb 12.3678 -19.6593
lclavicle 1.31894e-013 2.38542e-015
lhumerus -22.4653 8.70128 85.2347
lradius 37.6658
lwrist -1.09247
lhand -17.0505 26.8322
lfingers 7.12502
lthumb 9.1866 56.6121
rfemur -31.4341 1.0957 17.7669
rtibia 28.862
rfoot 1.62069 -0.51338
rtoes -0.231415
lfemur 9.23905 -5.72267 -25.6899
ltibia 34.3918
lfoot 19.1418 -17.0548
ltoes -5.34979
192
root -6.78676 17.0506 15.3029 -3.20966 -38.7083 6.9763
lowerback 7.75697 -1.24812 -7.2752
upperback -0.936577 -2.2439 2.34368
thorax -4.97594 -0.874027 6.84347
lowerneck -15.979 -3.77862 -10.3116
upperneck 23.6589 -3.86109 4.64954
head 10.5377 -2.20542 2.84962
rclavicle -4.12975e-014 -1.11319e-014
rhumerus -50.5538 -29.149 -57.2819
rradius 22.9083
rwrist 12.855
rhand -13.5417 10.5838
rfingers 7.12502
rthumb 12.571 -19.018
lclavicle -4.12975e-014 -1.11319e-014
lhumerus -22.6501 8.88811 85.3114
lradius 37.2874
lwrist -1.31055
lhand -16.7631 26.7331
lfingers 7.12502
lthumb 9.46397 56.5006
rfemur -30.5286 1.14299 18.2685
rtibia 29.7771
rfoot 1.03498 -0.156808
rtoes 3.31961
lfemur 8.02086 -5.84075 -25.1918
ltibia 37.1094
lfoot 23.4411 -17.4331
ltoes -1.81768
193
root -6.97423 17.0828 15.492 -3.1641 -38.4691 6.58702
lowerback 7.67376 -1.25637 -6.98842
upperback -0.752799 -2.2175 2.35323
thorax -4.74778 -0.885374 6.67714
lowerneck -16.3257 -3.90333 -10.2682
upperneck 23.7662 -4.05029 4.79974
head 10.6615 -2.26669 2.86806
rclavicle 4.81556e-014 3.97569e-015
rhumerus -50.4911 -29.7279 -57.5009
rradius 23.2906
rwrist 11.6647
rhand -14.432 9.91463
rfingers 7.12502
rthumb 11.7125 -19.7379
lclavicle 4.81556e-014 3.97569e-015
lhumerus -22.5893 8.82069 85.3769
lradius 36.756
lwrist -1.39204
lhand -18.2401 25.8201
lfingers 7.12502
lthumb 8.0386 55.6472
rfemur -29.5743 1.24414 18.6788
rtibia 30.3793
rfoot 0.37638 -0.744305
rtoes 3.98102
lfemur 6.42908 -6.09504 -24.6724
ltibia 39.9086
lfoot 27.7982 -18.0774
ltoes 1.95392
194
root -7.15468 17.1259 15.6589 -2.9839 -38.1953 6.2317
lowerback 7.81136 -1.25741 -6.87778
upperback -0.812989 -2.21441 2.45144
thorax -4.8898 -0.877231 6.72654
lowerneck -16.2042 -4.07848 -10.3795
upperneck 23.6796 -4.31662 4.94193
head 10.6357 -2.38152 2.89962
rclavicle -6.55989e-014 2.46493e-014
rhumerus -50.4068 -29.4371 -57.9912
rradius 23.7501
rwrist 9.57102
rhand -14.1681 10.5209
rfingers 7.12502
rthumb 11.967 -19.117
lclavicle -6.55989e-014 2.46493e-014
lhumerus -22.8587 8.67518 85.5776
lradius 36.2786
lwrist -1.56319
lhand -19.7732 25.0565
lfingers 7.12502
lthumb 6.55879 54.935
rfemur -28.5977 1.55247 19.0554
rtibia 30.6268
rfoot -0.37889 -1.59987
rtoes 4.89409
lfemur 4.39367 -6.4036 -24.0979
ltibia 42.7889
lfoot 31.8268 -19.8278
ltoes 1.63408
195
root -7.33137 17.1641 15.8261 -2.30986 -38.2127 4.99551
lowerback 7.96374 -1.19951 -6.02284
upperback -0.852876 -2.05054 2.75252
thorax -5.06101 -0.807613 6.54872
lowerneck -16.2458 -4.09991 -10.3475
upperneck 23.7298 -4.35309 4.9435
head 10.6645 -2.39534 2.88975
rclavicle -1.81888e-014 -1.19271e-014
rhumerus -50.0602 -28.7071 -58.9139
rradius 24.2537
rwrist 7.16327
rhand -13.591 11.5791
rfingers 7.12502
rthumb 12.5235 -18.0256
lclavicle -1.81888e-014 -1.19271e-014
lhumerus -23.1928 8.53163 85.8632
lradius 35.8207
lwrist -1.78035
lhand -19.7219 24.951
lfingers 7.12502
lthumb 6.60829 54.8279
rfemur -27.4318 2.04573 20.3028
rtibia 30.5269
rfoot -1.08582 -2.07729
rtoes 5.67296
lfemur 2.33242 -6.30636 -22.7394
ltibia 45.7091
lfoot 34.8153 -22.6473
ltoes -1.80614
196
root -7.51121 17.1977 16.0109 -1.77726 -38.32 3.64658
lowerback 8.05293 -1.07967 -4.94669
upperback -0.778514 -1.77816 2.99317
thorax -5.09682 -0.701191 6.15935
lowerneck -16.1868 -4.05045 -10.259
upperneck 23.6809 -4.334 5.02743
head 10.632 -2.36835 2.90858
rclavicle -9.28324e-014 1.19271e-014
rhumerus -49.7266 -28.3172 -59.7666
rradius 24.6881
rwrist 6.13611
rhand -13.5793 11.2022
rfingers 7.12502
rthumb 12.5348 -18.4018
lclavicle -9.28324e-014 1.19271e-014
lhumerus -23.3933 8.07996 86.1397
lradius 35.1763
lwrist -1.85354
lhand -18.8762 25.4354
lfingers 7.12502
lthumb 7.42465 55.2851
rfemur -25.9329 2.53417 21.6398
rtibia 30.2117
rfoot -1.66957 -2.67906
rtoes 5.02795
lfemur 0.681494 -6.07361 -21.4424
ltibia 48.5136
lfoot 37.3899 -21.4031
ltoes 4.18448
197
root -7.68791 17.2382 16.1991 -1.445 -38.3939 2.67386
lowerback 8.06235 -0.915565 -4.092
upperback -0.634735 -1.47228 3.08068
thorax -5.01065 -0.579166 5.72369
lowerneck -15.9119 -4.13643 -10.3156
upperneck 23.2642 -4.53824 5.35404
head 10.4528 -2.42417 3.00492
rclavicle -3.63279e-014 -1.66979e-014
rhumerus -49.3353 -28.1654 -60.545
rradius 25.0143
rwrist 5.56972
rhand -13.5948 10.7795
rfingers 7.12502
rthumb 12.5198 -18.8254
lclavicle -3.63279e-014 -1.66979e-014
lhumerus -23.4659 7.33933 86.3983
lradius 34.5787
lwrist -2.11377
lhand -19.2043 25.2033
lfingers 7.12502
lthumb 7.1079 55.0639
rfemur -24.3716 2.89362 22.6185
rtibia 29.7245
rfoot -2.14524 -3.29106
rtoes 3.74823
lfemur -0.943139 -6.09662 -20.6083
ltibia 51.2209
lfoot 37.1466 -19.5664
ltoes 12.0057
198
root -7.86082 17.2718 16.3757 -1.28891 -38.4074 2.19141
lowerback 8.04374 -0.793069 -3.74944
upperback -0.523739 -1.27457 3.10701
thorax -4.9148 -0.495702 5.52905
lowerneck -15.9156 -4.26552 -10.2289
upperneck 23.1404 -4.77464 5.49679
head 10.4301 -2.5054 3.00662
rclavicle 3.54831e-014 1.59028e-014
rhumerus -48.618 -27.954 -61.3697
rradius 25.0246
rwrist 5.02659
rhand -13.9369 10.7043
rfingers 7.12502
rthumb 12.1899 -18.9205
lclavicle 3.54831e-014 1.59028e-014
lhumerus -23.4854 6.98947 86.5695
lradius 33.9041
lwrist -2.53518
lhand -19.4247 25.0352
lfingers 7.12502
lthumb 6.89521 54.9029
rfemur -22.9857 3.11657 23.2112
rtibia 29.2212
rfoot -2.58768 -3.65215
rtoes 2.62596
lfemur -2.71629 -6.04847 -20.142
ltibia 53.7917
lfoot 35.6821 -18.0435
ltoes 13.4832
199
root -8.02887 17.2935 16.5328 -0.744364 -38.345 1.37499
lowerback 8.09711 -0.690791 -3.24143
upperback -0.548113 -1.08361 3.2575
thorax -4.99967 -0.41023 5.37804
lowerneck -16.3452 -4.41994 -10.0777
upperneck 23.5892 -4.99869 5.46195
head 10.6918 -2.59837 2.93657
rclavicle 4.93483e-014 -1.35174e-014
rhumerus -47.7809 -27.5078 -62.3188
rradius 25.0085
rwrist 4.57527
rhand -14.2164 10.4835
rfingers 7.12502
rthumb 11.9205 -19.1572
lclavicle 4.93483e-014 -1.35174e-014
lhumerus -23.5021 6.61147 86.7706
lradius 33.1412
lwrist -2.87205
lhand -18.8434 25.2578
lfingers 7.12502
lthumb 7.45632 55.1063
rfemur -21.8889 3.38616 24.128
rtibia 28.7724
rfoot -2.98648 -4.19519
rtoes 1.66721
lfemur -4.77995 -5.76927 -19.1807
ltibia 56.314
lfoot 32.7479 -17.0353
ltoes 10.1076
200
root -8.19429 17.3184 16.7073 -0.373382 -38.543 0.531097
lowerback 8.14973 -0.534592 -2.58408
upperback -0.514338 -0.806487 3.40555
thorax -5.03215 -0.289224 5.12672
lowerneck -16.2774 -4.45298 -9.91237
upperneck 23.5467 -5.06163 5.32991
head 10.6601 -2.62804 2.85189
rclavicle 4.90501e-014 -1.27222e-014
rhumerus -47.0931 -26.9529 -63.1953
rradius 25.124
rwrist 4.40567
rhand -14.4658 10.5152
rfingers 7.12502
rthumb 11.6799 -19.1393
lclavicle 4.90501e-014 -1.27222e-014
lhumerus -23.6589 6.13175 87.0427
lradius 32.404
lwrist -3.21706
lhand -18.5042 25.7138
lfingers 7.12502
lthumb 7.78372 55.5505
rfemur -20.5236 3.89698 25.008
rtibia 28.3043
rfoot -3.50166 -4.78862
rtoes 1.31958
lfemur -6.50751 -5.33444 -18.3533
ltibia 58.6432
lfoot 28.8054 -15.5125
ltoes 0.803275
201
root -8.35864 17.346 16.8848 -0.257277 -38.6977 0.0985938
lowerback 8.26284 -0.406401 -2.24227
upperback -0.574443 -0.599278 3.46509
thorax -5.18393 -0.190878 4.97323
lowerneck -15.9474 -4.45137 -9.96728
upperneck 23.4237 -5.10835 5.45148
head 10.5602 -2.64437 2.9011
rclavicle 1.42131e-014 9.54166e-015
rhumerus -46.4009 -26.0452 -64.2477
rradius 25.2879
rwrist 4.16479
rhand -15.1274 10.3306
rfingers 7.12502
rthumb 11.0419 -19.359
lclavicle 1.42131e-014 9.54166e-015
lhumerus -24.0577 5.99116 87.2141
lradius 31.6974
lwrist -4.1475
lhand -18.287 25.6316
lfingers 7.12502
lthumb 7.99333 55.4605
rfemur -19.1179 4.16078 25.5256
rtibia 27.8275
rfoot -4.16686 -5.02926
rtoes 1.89819
lfemur -8.19514 -4.97943 -17.9289
ltibia 60.7173
lfoot 24.394 -13.745
ltoes 0.224874
202
root -8.52521 17.3706 17.0597 0.0315602 -39.0392 -0.322812
lowerback 8.19348 -0.203915 -1.9508
upperback -0.672571 -0.295506 3.51723
thorax -5.2798 -0.0445306 4.82466
lowerneck -15.7805 -4.58933 -10.2635
upperneck 23.4577 -5.34234 5.8188
head 10.5811 -2.73917 3.05221
rclavicle -4.49999e-014 -6.36111e-015
rhumerus -45.787 -25.4368 -65.0807
rradius 25.446
rwrist 4.56457
rhand -15.2895 10.5739
rfingers 7.12502
rthumb 10.8855 -19.1239
lclavicle -4.49999e-014 -6.36111e-015
lhumerus -24.6278 6.02251 87.3638
lradius 31.1751
lwrist -5.37765
lhand -18.4872 25.1473
lfingers 7.12502
lthumb 7.80016 54.9834
rfemur -17.9866 4.67706 26.0688
rtibia 27.4237
rfoot -4.70698 -5.38249
rtoes 1.51285
lfemur -10.057 -4.41546 -17.4683
ltibia 62.514
lfoot 19.9433 -12.5901
ltoes -1.53047
203
root -8.69141 17.3956 17.2284 0.224473 -39.2922 -0.503316
lowerback 7.96006 -0.0379308 -1.88632
upperback -0.668489 -0.066885 3.51854
thorax -5.16577 0.0645538 4.75687
lowerneck -15.7977 -4.69159 -10.3538
upperneck 23.587 -5.47593 5.84908
head 10.6486 -2.80647 3.05994
rclavicle -1.19246e-013 0
rhumerus -45.0349 -25.4286 -65.5565
rradius 25.4646
rwrist 5.8604
rhand -14.7231 11.642
rfingers 7.12502
rthumb 11.4318 -18.0263
lclavicle -1.19246e-013 0
lhumerus -25.0686 6.13858 87.4595
lradius 30.7932
lwrist -6.37109
lhand -18.7673 25.0199
lfingers 7.12502
lthumb 7.52978 54.8659
rfemur -17.0166 5.06049 26.4122
rtibia 27.148
rfoot -5.24666 -5.77533
rtoes 0.828992
lfemur -11.9781 -3.94441 -17.2045
ltibia 64.0094
lfoot 15.8708 -12.0359
ltoes -2.6686
